<svg width="136" height="33" viewBox="0 0 136 33" fill="none" xmlns="http://www.w3.org/2000/svg">
<path fill-rule="evenodd" clip-rule="evenodd" d="M22.9552 32V8.73877L0 8.73877L0 32H22.9552ZM0 14.8562L17.0608 27.6183L0 24.9763L0 14.8562Z" fill="white"/>
<path d="M36.2109 32.3586C34.4311 32.3586 32.9966 32.0266 31.9075 31.3625C30.8449 30.6718 30.0613 29.7022 29.5565 28.4536C29.0784 27.1785 28.8393 25.6776 28.8393 23.951V17.0176C28.8393 15.2378 29.0784 13.7236 29.5565 12.4751C30.0613 11.2266 30.8582 10.2702 31.9473 9.60612C33.0365 8.94201 34.4577 8.60995 36.2109 8.60995C37.8579 8.60995 39.1994 8.87559 40.2355 9.40688C41.298 9.91161 42.0684 10.6953 42.5466 11.7578C43.0247 12.7939 43.2638 14.1088 43.2638 15.7027V17.6153H38.1634V15.5831C38.1634 14.7862 38.097 14.1619 37.9642 13.7103C37.8579 13.2322 37.6587 12.9001 37.3665 12.7142C37.0743 12.5016 36.6891 12.3954 36.2109 12.3954C35.7328 12.3954 35.3476 12.5282 35.0554 12.7939C34.7632 13.0329 34.5507 13.4314 34.4178 13.9893C34.3116 14.5471 34.2584 15.3175 34.2584 16.3004V24.7479C34.2584 26.2355 34.4178 27.245 34.7366 27.7762C35.0554 28.281 35.5601 28.5333 36.2508 28.5333C36.7821 28.5333 37.1805 28.4138 37.4462 28.1747C37.7384 27.9356 37.9243 27.5903 38.004 27.1387C38.1103 26.6605 38.1634 26.0894 38.1634 25.4253V22.9548H43.2638V25.1464C43.2638 26.6871 43.0115 28.002 42.5067 29.0912C42.0286 30.1803 41.2582 31.0038 40.1956 31.5617C39.1596 32.093 37.8314 32.3586 36.2109 32.3586ZM48.6602 32.3586C47.6242 32.3586 46.721 32.093 45.9507 31.5617C45.2069 31.0038 44.6357 30.3132 44.2373 29.4897C43.8388 28.6396 43.6396 27.763 43.6396 26.8598C43.6396 25.4253 43.9052 24.2166 44.4365 23.2337C44.9678 22.2508 45.6717 21.4273 46.5484 20.7632C47.4516 20.0991 48.4477 19.528 49.5369 19.0498C50.6526 18.5451 51.7949 18.0935 52.9637 17.695V15.7027C52.9637 15.0386 52.9106 14.4807 52.8043 14.0291C52.7246 13.5775 52.5519 13.2322 52.2863 12.9931C52.0207 12.754 51.6355 12.6345 51.1307 12.6345C50.6526 12.6345 50.2674 12.7407 49.9752 12.9532C49.7095 13.1658 49.5103 13.4713 49.3775 13.8697C49.2712 14.2416 49.2181 14.6799 49.2181 15.1847L49.1384 16.5793L43.9583 16.3801C44.0646 13.7236 44.7287 11.7711 45.9507 10.5226C47.1726 9.2475 49.0454 8.60995 51.5691 8.60995C53.8802 8.60995 55.567 9.2475 56.6296 10.5226C57.6922 11.7977 58.2235 13.5244 58.2235 15.7027V26.3418C58.2235 27.1918 58.2368 27.9622 58.2633 28.6529C58.3164 29.3435 58.3696 29.9678 58.4227 30.5257C58.5024 31.0835 58.5688 31.575 58.6219 32H53.7208C53.6411 31.4687 53.5481 30.871 53.4419 30.2069C53.3356 29.5162 53.2559 29.0115 53.2028 28.6927C52.9371 29.6225 52.4324 30.4725 51.6886 31.2429C50.9448 31.9867 49.9353 32.3586 48.6602 32.3586ZM50.6526 28.3341C50.9979 28.3341 51.3167 28.2544 51.6089 28.095C51.9011 27.9091 52.1668 27.6965 52.4058 27.4575C52.6449 27.2184 52.8309 27.0059 52.9637 26.8199V20.4046C52.3527 20.7499 51.7816 21.0953 51.2503 21.4406C50.7456 21.7859 50.3072 22.1711 49.9353 22.5962C49.5634 22.9946 49.2712 23.4329 49.0587 23.9111C48.8462 24.3893 48.7399 24.9471 48.7399 25.5847C48.7399 26.4347 48.8993 27.1121 49.2181 27.6169C49.5634 28.095 50.0416 28.3341 50.6526 28.3341ZM60.2784 32V8.96857H65.6975V12.5149C66.4945 11.1601 67.2914 10.1905 68.0883 9.60612C68.8853 8.99513 69.7619 8.68964 70.7182 8.68964C70.8776 8.68964 71.0104 8.70292 71.1167 8.72949C71.2495 8.72949 71.3956 8.74277 71.555 8.76934V14.3877C71.2362 14.2549 70.8776 14.1486 70.4792 14.069C70.1073 13.9627 69.7221 13.9096 69.3236 13.9096C68.6064 13.9096 67.9555 14.0822 67.3711 14.4276C66.7867 14.7729 66.2288 15.3441 65.6975 16.141V32H60.2784ZM75.2026 32L70.6202 8.96857H75.9198L78.2708 25.505L80.5819 8.96857H85.8018L81.2194 32H75.2026ZM93.3048 32.3586C91.5781 32.3586 90.1702 32.0398 89.0811 31.4023C87.9919 30.7382 87.1817 29.7819 86.6504 28.5333C86.1457 27.2582 85.8933 25.7308 85.8933 23.951V17.0176C85.8933 15.1847 86.1457 13.6439 86.6504 12.3954C87.1817 11.1469 87.9919 10.2038 89.0811 9.56627C90.1968 8.92872 91.6047 8.60995 93.3048 8.60995C95.1378 8.60995 96.559 8.95529 97.5684 9.64596C98.6044 10.3366 99.335 11.3461 99.76 12.6743C100.212 13.976 100.437 15.5699 100.437 17.4559V20.7234H91.2726V25.2659C91.2726 26.0097 91.339 26.6207 91.4719 27.0988C91.6312 27.577 91.8703 27.9223 92.1891 28.1349C92.5079 28.3474 92.8931 28.4536 93.3447 28.4536C93.8228 28.4536 94.208 28.3474 94.5002 28.1349C94.7924 27.8958 95.0049 27.5637 95.1378 27.1387C95.2706 26.6871 95.337 26.1292 95.337 25.4651V23.5525H100.398V25.1065C100.398 27.4442 99.8131 29.2373 98.6443 30.4858C97.4754 31.7344 95.6956 32.3586 93.3048 32.3586ZM91.2726 18.0536H95.337V15.8621C95.337 15.0651 95.2706 14.4276 95.1378 13.9494C95.0049 13.4447 94.7924 13.0861 94.5002 12.8736C94.208 12.6345 93.7963 12.5149 93.265 12.5149C92.7868 12.5149 92.4016 12.6345 92.1094 12.8736C91.8172 13.1126 91.6047 13.5111 91.4719 14.069C91.339 14.6268 91.2726 15.4237 91.2726 16.4598V18.0536ZM105.948 32.3586C104.912 32.3586 104.009 32.093 103.238 31.5617C102.494 31.0038 101.923 30.3132 101.525 29.4897C101.126 28.6396 100.927 27.763 100.927 26.8598C100.927 25.4253 101.193 24.2166 101.724 23.2337C102.255 22.2508 102.959 21.4273 103.836 20.7632C104.739 20.0991 105.735 19.528 106.824 19.0498C107.94 18.5451 109.082 18.0935 110.251 17.695V15.7027C110.251 15.0386 110.198 14.4807 110.092 14.0291C110.012 13.5775 109.839 13.2322 109.574 12.9931C109.308 12.754 108.923 12.6345 108.418 12.6345C107.94 12.6345 107.555 12.7407 107.263 12.9532C106.997 13.1658 106.798 13.4713 106.665 13.8697C106.559 14.2416 106.506 14.6799 106.506 15.1847L106.426 16.5793L101.246 16.3801C101.352 13.7236 102.016 11.7711 103.238 10.5226C104.46 9.2475 106.333 8.60995 108.857 8.60995C111.168 8.60995 112.855 9.2475 113.917 10.5226C114.98 11.7977 115.511 13.5244 115.511 15.7027V26.3418C115.511 27.1918 115.524 27.9622 115.551 28.6529C115.604 29.3435 115.657 29.9678 115.71 30.5257C115.79 31.0835 115.856 31.575 115.909 32H111.008C110.929 31.4687 110.836 30.871 110.729 30.2069C110.623 29.5162 110.543 29.0115 110.49 28.6927C110.225 29.6225 109.72 30.4725 108.976 31.2429C108.232 31.9867 107.223 32.3586 105.948 32.3586ZM107.94 28.3341C108.285 28.3341 108.604 28.2544 108.896 28.095C109.189 27.9091 109.454 27.6965 109.693 27.4575C109.932 27.2184 110.118 27.0059 110.251 26.8199V20.4046C109.64 20.7499 109.069 21.0953 108.538 21.4406C108.033 21.7859 107.595 22.1711 107.223 22.5962C106.851 22.9946 106.559 23.4329 106.346 23.9111C106.134 24.3893 106.027 24.9471 106.027 25.5847C106.027 26.4347 106.187 27.1121 106.506 27.6169C106.851 28.095 107.329 28.3341 107.94 28.3341ZM121.152 32.3586C120.249 32.3586 119.505 32.1328 118.921 31.6812C118.336 31.2031 117.911 30.5788 117.646 29.8084C117.38 29.0115 117.247 28.1747 117.247 27.2981V8.96857H122.666V26.3019C122.666 26.9926 122.773 27.5372 122.985 27.9356C123.224 28.3075 123.649 28.4935 124.26 28.4935C124.659 28.4935 125.057 28.3872 125.456 28.1747C125.881 27.9622 126.292 27.7098 126.691 27.4176V8.96857H132.11V32H126.691V29.8084C125.92 30.5522 125.07 31.1632 124.141 31.6414C123.211 32.1195 122.215 32.3586 121.152 32.3586Z" fill="white"/>
</svg>
